<svg width="514" height="106" viewBox="0 0 514 106" fill="none" xmlns="http://www.w3.org/2000/svg">
<circle cx="2" cy="2" r="2" fill="#CACACA"/>
<circle cx="274" cy="2" r="2" fill="#CACACA"/>
<circle cx="2" cy="36" r="2" fill="#CACACA"/>
<circle cx="274" cy="36" r="2" fill="#CACACA"/>
<circle cx="2" cy="70" r="2" fill="#CACACA"/>
<circle cx="274" cy="70" r="2" fill="#CACACA"/>
<circle cx="2" cy="104" r="2" fill="#CACACA"/>
<circle cx="274" cy="104" r="2" fill="#CACACA"/>
<circle cx="36" cy="2" r="2" fill="#CACACA"/>
<circle cx="308" cy="2" r="2" fill="#CACACA"/>
<circle cx="36" cy="36" r="2" fill="#CACACA"/>
<circle cx="308" cy="36" r="2" fill="#CACACA"/>
<circle cx="36" cy="70" r="2" fill="#CACACA"/>
<circle cx="308" cy="70" r="2" fill="#CACACA"/>
<circle cx="36" cy="104" r="2" fill="#CACACA"/>
<circle cx="308" cy="104" r="2" fill="#CACACA"/>
<circle cx="70" cy="2" r="2" fill="#CACACA"/>
<circle cx="342" cy="2" r="2" fill="#CACACA"/>
<circle cx="70" cy="36" r="2" fill="#CACACA"/>
<circle cx="342" cy="36" r="2" fill="#CACACA"/>
<circle cx="70" cy="70" r="2" fill="#CACACA"/>
<circle cx="342" cy="70" r="2" fill="#CACACA"/>
<circle cx="70" cy="104" r="2" fill="#CACACA"/>
<circle cx="342" cy="104" r="2" fill="#CACACA"/>
<circle cx="104" cy="2" r="2" fill="#CACACA"/>
<circle cx="376" cy="2" r="2" fill="#CACACA"/>
<circle cx="104" cy="36" r="2" fill="#CACACA"/>
<circle cx="376" cy="36" r="2" fill="#CACACA"/>
<circle cx="104" cy="70" r="2" fill="#CACACA"/>
<circle cx="376" cy="70" r="2" fill="#CACACA"/>
<circle cx="104" cy="104" r="2" fill="#CACACA"/>
<circle cx="376" cy="104" r="2" fill="#CACACA"/>
<circle cx="138" cy="2" r="2" fill="#CACACA"/>
<circle cx="410" cy="2" r="2" fill="#CACACA"/>
<circle cx="138" cy="36" r="2" fill="#CACACA"/>
<circle cx="410" cy="36" r="2" fill="#CACACA"/>
<circle cx="138" cy="70" r="2" fill="#CACACA"/>
<circle cx="410" cy="70" r="2" fill="#CACACA"/>
<circle cx="138" cy="104" r="2" fill="#CACACA"/>
<circle cx="410" cy="104" r="2" fill="#CACACA"/>
<circle cx="172" cy="2" r="2" fill="#CACACA"/>
<circle cx="444" cy="2" r="2" fill="#CACACA"/>
<circle cx="172" cy="36" r="2" fill="#CACACA"/>
<circle cx="444" cy="36" r="2" fill="#CACACA"/>
<circle cx="172" cy="70" r="2" fill="#CACACA"/>
<circle cx="444" cy="70" r="2" fill="#CACACA"/>
<circle cx="172" cy="104" r="2" fill="#CACACA"/>
<circle cx="444" cy="104" r="2" fill="#CACACA"/>
<circle cx="206" cy="2" r="2" fill="#CACACA"/>
<circle cx="478" cy="2" r="2" fill="#CACACA"/>
<circle cx="206" cy="36" r="2" fill="#CACACA"/>
<circle cx="478" cy="36" r="2" fill="#CACACA"/>
<circle cx="206" cy="70" r="2" fill="#CACACA"/>
<circle cx="478" cy="70" r="2" fill="#CACACA"/>
<circle cx="206" cy="104" r="2" fill="#CACACA"/>
<circle cx="478" cy="104" r="2" fill="#CACACA"/>
<circle cx="240" cy="2" r="2" fill="#CACACA"/>
<circle cx="512" cy="2" r="2" fill="#CACACA"/>
<circle cx="240" cy="36" r="2" fill="#CACACA"/>
<circle cx="512" cy="36" r="2" fill="#CACACA"/>
<circle cx="240" cy="70" r="2" fill="#CACACA"/>
<circle cx="512" cy="70" r="2" fill="#CACACA"/>
<circle cx="240" cy="104" r="2" fill="#CACACA"/>
<circle cx="512" cy="104" r="2" fill="#CACACA"/>
</svg>
