<svg width="80" height="384" viewBox="0 0 80 384" fill="none" xmlns="http://www.w3.org/2000/svg">
<circle cx="1.49416" cy="382.506" r="1.49416" transform="rotate(-90 1.49416 382.506)" fill="#CACACA"/>
<circle cx="1.49416" cy="179.3" r="1.49416" transform="rotate(-90 1.49416 179.3)" fill="#CACACA"/>
<circle cx="26.895" cy="382.506" r="1.49416" transform="rotate(-90 26.895 382.506)" fill="#CACACA"/>
<circle cx="26.895" cy="179.3" r="1.49416" transform="rotate(-90 26.895 179.3)" fill="#CACACA"/>
<circle cx="52.2957" cy="382.506" r="1.49416" transform="rotate(-90 52.2957 382.506)" fill="#CACACA"/>
<circle cx="52.2957" cy="179.3" r="1.49416" transform="rotate(-90 52.2957 179.3)" fill="#CACACA"/>
<circle cx="77.6966" cy="382.506" r="1.49416" transform="rotate(-90 77.6966 382.506)" fill="#CACACA"/>
<circle cx="77.6966" cy="179.3" r="1.49416" transform="rotate(-90 77.6966 179.3)" fill="#CACACA"/>
<circle cx="1.49416" cy="357.105" r="1.49416" transform="rotate(-90 1.49416 357.105)" fill="#CACACA"/>
<circle cx="1.49416" cy="153.899" r="1.49416" transform="rotate(-90 1.49416 153.899)" fill="#CACACA"/>
<circle cx="26.895" cy="357.105" r="1.49416" transform="rotate(-90 26.895 357.105)" fill="#CACACA"/>
<circle cx="26.895" cy="153.899" r="1.49416" transform="rotate(-90 26.895 153.899)" fill="#CACACA"/>
<circle cx="52.2957" cy="357.105" r="1.49416" transform="rotate(-90 52.2957 357.105)" fill="#CACACA"/>
<circle cx="52.2957" cy="153.899" r="1.49416" transform="rotate(-90 52.2957 153.899)" fill="#CACACA"/>
<circle cx="77.6966" cy="357.105" r="1.49416" transform="rotate(-90 77.6966 357.105)" fill="#CACACA"/>
<circle cx="77.6966" cy="153.899" r="1.49416" transform="rotate(-90 77.6966 153.899)" fill="#CACACA"/>
<circle cx="1.49416" cy="331.704" r="1.49416" transform="rotate(-90 1.49416 331.704)" fill="#CACACA"/>
<circle cx="1.49416" cy="128.498" r="1.49416" transform="rotate(-90 1.49416 128.498)" fill="#CACACA"/>
<circle cx="26.895" cy="331.704" r="1.49416" transform="rotate(-90 26.895 331.704)" fill="#CACACA"/>
<circle cx="26.895" cy="128.498" r="1.49416" transform="rotate(-90 26.895 128.498)" fill="#CACACA"/>
<circle cx="52.2957" cy="331.704" r="1.49416" transform="rotate(-90 52.2957 331.704)" fill="#CACACA"/>
<circle cx="52.2957" cy="128.498" r="1.49416" transform="rotate(-90 52.2957 128.498)" fill="#CACACA"/>
<circle cx="77.6966" cy="331.704" r="1.49416" transform="rotate(-90 77.6966 331.704)" fill="#CACACA"/>
<circle cx="77.6966" cy="128.498" r="1.49416" transform="rotate(-90 77.6966 128.498)" fill="#CACACA"/>
<circle cx="1.49416" cy="306.304" r="1.49416" transform="rotate(-90 1.49416 306.304)" fill="#CACACA"/>
<circle cx="1.49416" cy="103.097" r="1.49416" transform="rotate(-90 1.49416 103.097)" fill="#CACACA"/>
<circle cx="26.895" cy="306.304" r="1.49416" transform="rotate(-90 26.895 306.304)" fill="#CACACA"/>
<circle cx="26.895" cy="103.097" r="1.49416" transform="rotate(-90 26.895 103.097)" fill="#CACACA"/>
<circle cx="52.2957" cy="306.304" r="1.49416" transform="rotate(-90 52.2957 306.304)" fill="#CACACA"/>
<circle cx="52.2957" cy="103.097" r="1.49416" transform="rotate(-90 52.2957 103.097)" fill="#CACACA"/>
<circle cx="77.6966" cy="306.304" r="1.49416" transform="rotate(-90 77.6966 306.304)" fill="#CACACA"/>
<circle cx="77.6966" cy="103.097" r="1.49416" transform="rotate(-90 77.6966 103.097)" fill="#CACACA"/>
<circle cx="1.49416" cy="280.903" r="1.49416" transform="rotate(-90 1.49416 280.903)" fill="#CACACA"/>
<circle cx="1.49416" cy="77.6963" r="1.49416" transform="rotate(-90 1.49416 77.6963)" fill="#CACACA"/>
<circle cx="26.895" cy="280.903" r="1.49416" transform="rotate(-90 26.895 280.903)" fill="#CACACA"/>
<circle cx="26.895" cy="77.6963" r="1.49416" transform="rotate(-90 26.895 77.6963)" fill="#CACACA"/>
<circle cx="52.2957" cy="280.903" r="1.49416" transform="rotate(-90 52.2957 280.903)" fill="#CACACA"/>
<circle cx="52.2957" cy="77.6963" r="1.49416" transform="rotate(-90 52.2957 77.6963)" fill="#CACACA"/>
<circle cx="77.6966" cy="280.903" r="1.49416" transform="rotate(-90 77.6966 280.903)" fill="#CACACA"/>
<circle cx="77.6966" cy="77.6963" r="1.49416" transform="rotate(-90 77.6966 77.6963)" fill="#CACACA"/>
<circle cx="1.49416" cy="255.502" r="1.49416" transform="rotate(-90 1.49416 255.502)" fill="#CACACA"/>
<circle cx="1.49416" cy="52.2959" r="1.49416" transform="rotate(-90 1.49416 52.2959)" fill="#CACACA"/>
<circle cx="26.895" cy="255.502" r="1.49416" transform="rotate(-90 26.895 255.502)" fill="#CACACA"/>
<circle cx="26.895" cy="52.2959" r="1.49416" transform="rotate(-90 26.895 52.2959)" fill="#CACACA"/>
<circle cx="52.2957" cy="255.502" r="1.49416" transform="rotate(-90 52.2957 255.502)" fill="#CACACA"/>
<circle cx="52.2957" cy="52.2959" r="1.49416" transform="rotate(-90 52.2957 52.2959)" fill="#CACACA"/>
<circle cx="77.6966" cy="255.502" r="1.49416" transform="rotate(-90 77.6966 255.502)" fill="#CACACA"/>
<circle cx="77.6966" cy="52.2959" r="1.49416" transform="rotate(-90 77.6966 52.2959)" fill="#CACACA"/>
<circle cx="1.49416" cy="230.101" r="1.49416" transform="rotate(-90 1.49416 230.101)" fill="#CACACA"/>
<circle cx="1.49416" cy="26.895" r="1.49416" transform="rotate(-90 1.49416 26.895)" fill="#CACACA"/>
<circle cx="26.895" cy="230.101" r="1.49416" transform="rotate(-90 26.895 230.101)" fill="#CACACA"/>
<circle cx="26.895" cy="26.895" r="1.49416" transform="rotate(-90 26.895 26.895)" fill="#CACACA"/>
<circle cx="52.2957" cy="230.101" r="1.49416" transform="rotate(-90 52.2957 230.101)" fill="#CACACA"/>
<circle cx="52.2957" cy="26.895" r="1.49416" transform="rotate(-90 52.2957 26.895)" fill="#CACACA"/>
<circle cx="77.6966" cy="230.101" r="1.49416" transform="rotate(-90 77.6966 230.101)" fill="#CACACA"/>
<circle cx="77.6966" cy="26.895" r="1.49416" transform="rotate(-90 77.6966 26.895)" fill="#CACACA"/>
<circle cx="1.49416" cy="204.7" r="1.49416" transform="rotate(-90 1.49416 204.7)" fill="#CACACA"/>
<circle cx="1.49416" cy="1.49412" r="1.49416" transform="rotate(-90 1.49416 1.49412)" fill="#CACACA"/>
<circle cx="26.895" cy="204.7" r="1.49416" transform="rotate(-90 26.895 204.7)" fill="#CACACA"/>
<circle cx="26.895" cy="1.49412" r="1.49416" transform="rotate(-90 26.895 1.49412)" fill="#CACACA"/>
<circle cx="52.2957" cy="204.7" r="1.49416" transform="rotate(-90 52.2957 204.7)" fill="#CACACA"/>
<circle cx="52.2957" cy="1.49412" r="1.49416" transform="rotate(-90 52.2957 1.49412)" fill="#CACACA"/>
<circle cx="77.6966" cy="204.7" r="1.49416" transform="rotate(-90 77.6966 204.7)" fill="#CACACA"/>
<circle cx="77.6966" cy="1.49412" r="1.49416" transform="rotate(-90 77.6966 1.49412)" fill="#CACACA"/>
</svg>
