<svg width="53" height="17" viewBox="0 0 53 17" fill="none" xmlns="http://www.w3.org/2000/svg">
<path fill-rule="evenodd" clip-rule="evenodd" d="M12.4828 0.343741C12.3324 0.234779 12.1537 0.14833 11.957 0.0893457C11.7603 0.0303609 11.5495 0 11.3365 0C11.1235 0 10.9126 0.0303609 10.7159 0.0893457C10.5192 0.14833 10.3406 0.234779 10.1902 0.343741L0.475469 7.36394C0.324686 7.47263 0.205058 7.60174 0.123433 7.74389C0.0418091 7.88604 -0.000205994 8.03842 -0.000205994 8.19232C-0.000205994 8.34622 0.0418091 8.49861 0.123433 8.64076C0.205058 8.78291 0.324686 8.91202 0.475469 9.02071L10.1902 16.0409C10.4942 16.2606 10.9065 16.384 11.3365 16.384C11.7664 16.384 12.1788 16.2606 12.4828 16.0409C12.7868 15.8212 12.9576 15.5232 12.9576 15.2125C12.9576 14.9018 12.7868 14.6038 12.4828 14.3841L3.91123 8.19232L12.4828 2.00051C12.6336 1.89182 12.7532 1.76271 12.8349 1.62056C12.9165 1.47841 12.9585 1.32602 12.9585 1.17212C12.9585 1.01822 12.9165 0.865836 12.8349 0.723689C12.7532 0.581541 12.6336 0.452427 12.4828 0.343741Z" fill="#C0C0C0"/>
<path fill-rule="evenodd" clip-rule="evenodd" d="M52.2847 8.19252C52.2847 7.8822 52.1141 7.58459 51.8104 7.36516C51.5068 7.14574 51.095 7.02246 50.6656 7.02246H3.24106C2.81164 7.02246 2.39981 7.14574 2.09617 7.36516C1.79253 7.58459 1.62194 7.8822 1.62194 8.19252C1.62194 8.50284 1.79253 8.80045 2.09617 9.01988C2.39981 9.23931 2.81164 9.36258 3.24106 9.36258L50.6656 9.36259C51.095 9.36259 51.5068 9.23931 51.8104 9.01988C52.1141 8.80045 52.2847 8.50284 52.2847 8.19252Z" fill="#C0C0C0"/>
</svg>
