<svg width="53" height="17" viewBox="0 0 53 17" fill="none" xmlns="http://www.w3.org/2000/svg">
<path fill-rule="evenodd" clip-rule="evenodd" d="M39.8018 0.343741C39.9522 0.234779 40.1309 0.14833 40.3276 0.0893457C40.5243 0.0303609 40.7352 0 40.9482 0C41.1611 0 41.372 0.0303609 41.5687 0.0893457C41.7654 0.14833 41.9441 0.234779 42.0945 0.343741L51.8092 7.36394C51.96 7.47263 52.0796 7.60174 52.1612 7.74389C52.2429 7.88604 52.2849 8.03842 52.2849 8.19232C52.2849 8.34622 52.2429 8.49861 52.1612 8.64076C52.0796 8.78291 51.96 8.91202 51.8092 9.02071L42.0945 16.0409C41.7905 16.2606 41.3781 16.384 40.9482 16.384C40.5182 16.384 40.1059 16.2606 39.8018 16.0409C39.4978 15.8212 39.327 15.5232 39.327 15.2125C39.327 14.9018 39.4978 14.6038 39.8018 14.3841L48.3734 8.19232L39.8018 2.00051C39.6511 1.89182 39.5314 1.76271 39.4498 1.62056C39.3682 1.47841 39.3262 1.32602 39.3262 1.17212C39.3262 1.01822 39.3682 0.865836 39.4498 0.723689C39.5314 0.581541 39.6511 0.452427 39.8018 0.343741Z" fill="#E7383E"/>
<path fill-rule="evenodd" clip-rule="evenodd" d="M0 8.19252C0 7.8822 0.170585 7.58459 0.474228 7.36516C0.77787 7.14574 1.1897 7.02246 1.61911 7.02246H49.0436C49.473 7.02246 49.8849 7.14574 50.1885 7.36516C50.4921 7.58459 50.6627 7.8822 50.6627 8.19252C50.6627 8.50284 50.4921 8.80045 50.1885 9.01988C49.8849 9.23931 49.473 9.36258 49.0436 9.36258L1.61911 9.36259C1.1897 9.36259 0.77787 9.23931 0.474228 9.01988C0.170585 8.80045 0 8.50284 0 8.19252Z" fill="#E7383E"/>
</svg>
