<svg width="53" height="17" viewBox="0 0 53 17" fill="none" xmlns="http://www.w3.org/2000/svg">
<path fill-rule="evenodd" clip-rule="evenodd" d="M12.4831 0.343741C12.3327 0.234779 12.154 0.14833 11.9573 0.0893457C11.7606 0.0303609 11.5497 0 11.3367 0C11.1238 0 10.9129 0.0303609 10.7162 0.0893457C10.5195 0.14833 10.3408 0.234779 10.1904 0.343741L0.475713 7.36394C0.32493 7.47263 0.205302 7.60174 0.123677 7.74389C0.0420532 7.88604 3.8147e-05 8.03842 3.8147e-05 8.19232C3.8147e-05 8.34622 0.0420532 8.49861 0.123677 8.64076C0.205302 8.78291 0.32493 8.91202 0.475713 9.02071L10.1904 16.0409C10.4944 16.2606 10.9068 16.384 11.3367 16.384C11.7667 16.384 12.179 16.2606 12.4831 16.0409C12.7871 15.8212 12.9579 15.5232 12.9579 15.2125C12.9579 14.9018 12.7871 14.6038 12.4831 14.3841L3.91147 8.19232L12.4831 2.00051C12.6338 1.89182 12.7535 1.76271 12.8351 1.62056C12.9167 1.47841 12.9587 1.32602 12.9587 1.17212C12.9587 1.01822 12.9167 0.865836 12.8351 0.723689C12.7535 0.581541 12.6338 0.452427 12.4831 0.343741Z" fill="#C0C0C0"/>
<path fill-rule="evenodd" clip-rule="evenodd" d="M52.2848 8.19222C52.2848 7.8819 52.1142 7.58429 51.8106 7.36486C51.5069 7.14543 51.0951 7.02216 50.6657 7.02216H3.24118C2.81176 7.02216 2.39993 7.14543 2.09629 7.36486C1.79265 7.58429 1.62206 7.8819 1.62206 8.19222C1.62206 8.50254 1.79265 8.80015 2.09629 9.01957C2.39993 9.239 2.81176 9.36228 3.24118 9.36228L50.6657 9.36228C51.0951 9.36228 51.5069 9.23901 51.8106 9.01958C52.1142 8.80015 52.2848 8.50254 52.2848 8.19222Z" fill="#C0C0C0"/>
</svg>
